<?xml version="1.0" encoding="UTF-8"?>
<svg enableBackground="new 0 0 463 89" version="1.1" viewBox="0 0 463 89" xmlns="http://www.w3.org/2000/svg" xmlnsCc="http://creativecommons.org/ns#" xmlnsDc="http://purl.org/dc/elements/1.1/" xmlnsRdf="http://www.w3.org/1999/02/22-rdf-syntax-ns#">
<g transform="translate(79.567 4.796)" enable-background="new" fill="#00aba9">
<path d="m125.08 23.91 7.76 16.69 7.76-16.69h8.34l-16.24 32.21-16.24-32.21z"/>
<path d="m178.72 34.58v19.99h-7.18v-3.88s-3.17 4.66-10.09 4.66c-5.76 0-11.06-3.75-11.06-10.28 0-5.89 5.37-10.16 12.03-10.16 5.63 0 8.54 2.2 8.54 2.2v-1.75c0-4.01-3.88-5.31-6.6-5.31-4.46 0-9.19 2.26-9.19 2.26l-2.52-6.4s5.69-2.78 12.1-2.78c8.79 0 13.97 4.47 13.97 11.45zm-7.77 10.74v-3.17s-2.78-1.55-6.99-1.55c-2.39 0-5.69 1.03-5.69 4.33 0 3.23 3.17 3.95 5.56 3.95 4.67 0 7.12-3.56 7.12-3.56z"/>
<path d="m187.39 5.67h7.76v48.9h-7.76z"/>
<path d="m203.83 43.77v-19.86h7.76v17.72c0 4.53 2.13 6.47 6.08 6.47 4.01 0 6.08-3.75 6.08-3.75v-20.44h7.76v30.66h-7.25v-4.46s-2.91 5.24-9.18 5.24c-5.88 0-11.25-4.21-11.25-11.58z"/>
<path d="m236.83 23.91h6.02v-9.12h7.76v9.12h9.25v6.99h-9.25v12.35c0 3.75 1.94 4.85 4.01 4.85 1.75 0 3.23-1.1 3.23-1.1l2.85 6.34s-2.91 2-7.37 2c-5.95 0-10.48-4.33-10.48-10.87v-13.57h-6.02z"/>
<path d="m293.11 34.58v19.99h-7.18v-3.88s-3.17 4.66-10.09 4.66c-5.76 0-11.06-3.75-11.06-10.28 0-5.89 5.37-10.16 12.03-10.16 5.63 0 8.54 2.2 8.54 2.2v-1.75c0-4.01-3.88-5.31-6.6-5.31-4.46 0-9.19 2.26-9.19 2.26l-2.52-6.4s5.69-2.78 12.1-2.78c8.79 0 13.97 4.47 13.97 11.45zm-7.76 10.74v-3.17s-2.78-1.55-6.99-1.55c-2.39 0-5.69 1.03-5.69 4.33 0 3.23 3.17 3.95 5.56 3.95 4.66 0 7.12-3.56 7.12-3.56z"/>
</g>
<path d="m109.54 73.761 16.2-28.07 16.2 28.07c2.77 4.81 7.39 8.28 12.79 9.6l22.39 5.5-51.38-88.99-51.38 89 22.39-5.5c5.4-1.33 10.02-4.8 12.79-9.61z" fill="#00aba9"/>
<path d="m67.59 14.971-16.2 28.07-16.23-28.07c-2.77-4.81-7.39-8.28-12.79-9.6l-22.39-5.5 51.38 89 51.4-89-22.39 5.5c-5.39 1.32-10.01 4.79-12.78 9.6z" fill="#00aba9"/>
</svg>
